<svg width="244" height="387" viewBox="0 0 244 387" fill="none" xmlns="http://www.w3.org/2000/svg">
<g clip-path="url(#clip0_4_67)">
<g clip-path="url(#clip1_4_67)">
<path d="M359.128 291.796C359.897 290.452 360.829 288.701 361.599 287.357C325.824 203.61 281.876 102.474 237.815 5.77089C235.903 5.24639 233.705 4.84459 231.915 4.60449C298.538 151.284 335.618 236.492 359.128 291.796Z" fill="#FFCC01"/>
<path d="M353.778 300.511L223.126 2.99722C221.336 2.75722 219.139 2.35532 217.064 2.23792C272.865 129.297 317.377 227.829 351.184 304.666C351.831 303.037 352.724 301.978 353.778 300.511Z" fill="#FFCC01"/>
<path d="M342.383 315.545C343.275 314.485 343.883 313.549 344.898 312.774C295.564 203.84 253.333 106.686 211.287 1.35602C210.188 1.15512 209.213 1.23862 208.114 1.03772C250.69 106.814 278.62 174.716 342.383 315.545Z" fill="#FFCC01"/>
<path d="M338.65 320.19C339.827 319.008 340.596 317.664 341.773 316.482C312.705 249.07 281.398 199.154 194.812 0.701126C193.144 0.745526 191.761 0.667328 190.094 0.711628C225.328 79.294 262.52 160.068 269.59 174.898C292.515 223.37 317.431 270.983 338.65 320.19Z" fill="#FFCC01"/>
<path d="M325.827 333.478C327.572 332.05 328.911 330.461 330.25 328.872C286.983 223.057 234.376 105.752 184.277 0.521327C182.894 0.443027 181.634 0.649226 180.373 0.855326C245.508 137.045 288.28 239.363 325.827 333.478Z" fill="#FFCC01"/>
<path d="M312.836 344.814C313.851 344.039 314.866 343.263 315.881 342.488C284.462 260.237 232.152 130.323 171.427 2.01398C170.167 2.22018 168.622 2.54898 167.239 2.47078C214.561 102.827 259.24 203.311 312.836 344.814Z" fill="#FFCC01"/>
<path d="M285.362 298.305C292.436 315.493 298.942 332.927 305.61 349.954C307.194 348.934 308.655 347.629 310.239 346.609C263.811 227.989 216.996 135.848 153.377 4.73859C152.116 4.94479 150.978 5.43539 149.718 5.64159C190.373 88.971 240.785 188.669 285.362 298.305Z" fill="#FFCC01"/>
<path d="M299.966 354.075C273.071 294.834 226.273 192.565 142.401 7.44739C141.141 7.65359 140.003 8.14418 138.458 8.47298C222.62 195.827 268.442 298.18 294.929 357.259C296.798 356.116 298.382 355.095 299.966 354.075Z" fill="#FFCC01"/>
<path d="M287.169 361.953C288.753 360.933 290.621 359.79 292.328 359.054C247.036 257.148 184.137 120.668 132.929 10.519C131.791 11.0096 130.816 11.0931 129.678 11.5837C221.384 207.828 221.517 212.831 287.169 361.953Z" fill="#FFCC01"/>
<path d="M285.463 362.689C237.969 258.022 173.603 120.489 122.891 13.8358C121.469 14.4491 120.047 15.0624 118.625 15.6756C167.335 118.469 226.053 240.559 281.604 364.691C283.026 364.077 284.448 363.464 285.463 362.689Z" fill="#FFCC01"/>
<path d="M272.179 369.43C244.972 315.721 178.208 178.884 105.38 21.7246C104.242 22.2152 103.511 22.8676 102.374 23.3582C158.816 146.43 221.131 276.078 267.913 371.269C268.482 371.024 271.326 369.798 272.179 369.43Z" fill="#FFCC01"/>
<path d="M258.689 374.91C260.111 374.297 261.248 373.806 262.793 373.477C190.121 213.551 137.771 101.534 101.075 24.2559C99.491 25.2762 97.5 26.1348 95.916 27.1551C143.316 126.128 155.242 148.309 258.689 374.91Z" fill="#FFCC01"/>
<path d="M275.47 367.673C276.608 367.183 277.745 366.692 279.167 366.079C232.659 266.046 166.783 125.791 115.212 17.1474C114.075 17.638 113.221 18.0059 112.084 18.4965C154.255 106.906 227.039 262.398 275.47 367.673Z" fill="#FFCC01"/>
<path d="M248.933 378.104C250.763 377.652 252.469 376.917 254.299 376.465C203.025 255.212 142.992 126.942 94.615 28.0528C93.478 28.5434 92.462 29.3184 91.609 29.6864C149.419 145.759 200.966 262.172 248.933 378.104Z" fill="#FFCC01"/>
<path d="M243.445 379.458C126.668 121.162 120.157 101.369 87.587 32.095C85.719 33.238 84.257 34.5428 82.389 35.6858C136.859 149.489 193.317 279.637 238.08 381.097C239.786 380.361 241.616 379.91 243.445 379.458Z" fill="#FFCC01"/>
<path d="M227.836 383.154C229.665 382.702 231.617 382.535 233.447 382.084C193.708 289.927 135.543 160.514 77.599 39.4383C76.3 40.336 75 41.234 73.823 42.416C162.291 227.239 201.584 319.925 227.836 383.154Z" fill="#FFCC01"/>
<path d="M220.272 384.391C170.442 271.96 118.337 160.511 65.093 49.553C63.632 50.858 62.171 52.163 60.709 53.467C112.324 163.779 164.347 274.252 214.824 385.054C216.776 384.887 218.321 384.558 220.272 384.391Z" fill="#FFCC01"/>
<path d="M208.277 385.516C156.819 272.438 100.465 152.701 55.272 58.848C54.38 59.908 53.203 61.09 52.31 62.149C94.314 148.607 147.68 259.85 204.374 385.85C205.757 385.928 207.017 385.722 208.277 385.516Z" fill="#FFCC01"/>
<path d="M188.96 386.087C167.428 342.412 154.466 311.57 43.71 71.93C43.102 72.867 42.372 73.519 41.764 74.456C89.42 178.716 150.2 313.41 184.933 386.137C186.194 385.931 187.577 386.009 188.96 386.087Z" fill="#FFCC01"/>
<path d="M164.104 383.987C166.179 384.104 168.092 384.629 170.166 384.746C112.708 262.449 74.342 165.653 38.3164 78.978C37.1395 80.16 36.0853 81.627 35.3155 82.971C74.835 186.354 116.821 282.939 164.104 383.987Z" fill="#FFCC01"/>
<path d="M163.412 383.948C128.311 310.368 105.915 262.343 27.4112 95.15C26.6414 96.493 25.8716 97.837 25.1018 99.181C76.962 210.061 122.773 307.696 157.919 382.943C159.709 383.183 161.622 383.708 163.412 383.948Z" fill="#FFCC01"/>
<path d="M142.17 379.277C144.083 379.801 145.996 380.326 147.909 380.85C107.633 303.093 59.848 196.189 20.4044 108.628C19.9191 109.849 19.1493 111.193 18.6639 112.414C50.253 179.413 133.183 361.564 142.17 379.277Z" fill="#FFCC01"/>
<path d="M141.763 379.115C105.184 299.763 55.036 190.506 18.5407 112.13C17.7709 113.474 17.4082 114.979 16.6384 116.323C51.338 192.1 99.892 297.66 137 377.458C138.629 378.105 140.257 378.752 141.763 379.115Z" fill="#FFCC01"/>
<path d="M128.536 375.037C130.164 375.684 131.67 376.047 133.298 376.694C97.991 301.853 50.794 221.345 11.9865 127.437C11.3394 129.065 10.9767 130.571 10.3296 132.2C56.569 239.432 90.235 289.343 128.536 375.037Z" fill="#FFCC01"/>
<path d="M111.193 367.673C113.636 368.644 115.917 370.021 118.359 370.992C58.77 259.397 41.437 219.983 7.14409 144.368C6.78139 145.873 6.2569 147.786 5.8942 149.292C43.264 236.736 75.377 301.822 111.193 367.673Z" fill="#FFCC01"/>
<path d="M82.441 351.061C84.314 352.277 86.311 353.778 88.184 354.994C30.001 235.708 47.055 277.604 2.4332 166.301C1.9922 169.19 1.5512 172.078 1.5174 175.129C13.7929 208.29 20.0481 222.797 82.441 351.061Z" fill="#FFCC01"/>
<path d="M60.682 333.458C63.454 335.973 66.348 338.773 69.404 341.166C43.796 293.514 22.3423 248.456 0.638388 200.47C0.604488 203.52 0.977685 206.733 1.22828 209.66C18.1097 247.245 40.795 297.507 60.682 333.458Z" fill="#FFCC01"/>
<path d="M41.233 311.822C28.6395 281.834 16.7762 251.193 2.7601 221.818C3.5013 225.884 4.2424 229.949 4.9836 234.015C29.057 286.714 23.6528 289.044 41.233 311.822Z" fill="#FFCC01"/>
</g>
</g>
<defs>
<clipPath id="clip0_4_67">
<rect width="244" height="387" fill="white"/>
</clipPath>
<clipPath id="clip1_4_67">
<rect width="304" height="507" fill="white" transform="translate(-60 -60)"/>
</clipPath>
</defs>
</svg>
