<svg width="120" height="212" viewBox="0 0 120 212" fill="none" xmlns="http://www.w3.org/2000/svg">
<g clip-path="url(#clip0_3_2)">
<mask id="mask0_3_2" style="mask-type:luminance" maskUnits="userSpaceOnUse" x="-64" y="-11" width="246" height="223">
<path d="M4.80032 211.939L181.18 119.828L113.38 -10.0003L-63.0002 82.1108L4.80032 211.939Z" fill="white"/>
</mask>
<g mask="url(#mask0_3_2)">
<path d="M119.299 3.10243C119.402 3.04843 119.402 3.04843 119.506 2.99433C120.959 2.49893 118.066 1.24493 117.544 1.25413C93.44 1.99243 68.0309 11.5756 48.4356 25.2324C25.746 41.0317 0.415193 66.9001 0.152393 96.398C0.0444928 108.041 3.99529 121.909 10.5852 131.502C17.121 140.991 28.405 144.446 39.6247 144.248C51.627 144.037 60.5362 137.146 68.9591 129.324C73.991 124.589 77.341 119.153 80.892 113.349C84.947 106.491 89.061 99.998 91.325 92.232C93.891 83.7827 96.245 75.1803 98.284 66.4791C100.179 58.5112 101.184 50.3502 102.975 42.4363C104.772 34.7833 105.525 27.1488 107.685 19.4372C108.719 15.8693 110.116 12.2428 112.045 9.12903C113.924 6.17263 116.717 4.71393 119.128 2.27023C118.129 1.87023 117.076 1.36683 115.974 1.02083C115.821 1.23233 115.668 1.44383 115.569 1.75883C114.859 2.91973 118.22 4.06103 118.723 3.00823C118.876 2.79673 119.029 2.58523 119.128 2.27023C119.888 0.95183 116.743 0.22433 115.974 1.02083C112.893 3.94623 110.001 5.71983 107.929 9.56703C104.998 15.0475 103.07 21.189 101.926 27.3166C99.627 39.0501 98.111 50.7698 95.551 62.5078C89.952 88.3414 81.402 115.584 60.2017 132.976C48.4684 142.526 29.4993 147.298 17.1818 135.561C8.6356 127.517 4.6078 112.241 3.6766 100.877C1.4118 73.0944 23.4909 49.3191 43.1931 32.8417C54.8184 23.084 68.2574 15.5389 82.579 10.6927C93.892 6.89133 106.725 3.48073 118.674 3.16563C117.985 2.60363 117.4 1.98753 116.712 1.42543C116.608 1.47943 116.608 1.47943 116.505 1.53353C115.259 1.92083 118.26 3.38173 119.299 3.10243Z" fill="#79C800"/>
<path d="M112.694 1.54842C104.986 8.47052 97.544 15.6488 89.516 22.211C81.696 28.6652 74.086 35.2723 67.2739 42.6483C53.7027 57.5038 42.0535 74.7788 32.9732 92.687C23.5918 111.279 17.261 131.175 12.2889 151.151C7.56379 170.34 4.148 189.767 3.715 209.61C3.738 210.915 7.0897 211.534 7.0713 210.491C7.5044 190.647 10.9202 171.22 15.6452 152.032C20.4737 132.789 26.5034 113.577 35.3227 95.673C44.3397 77.1397 56.3982 59.3877 70.379 44.0552C77.241 36.5217 84.904 30.0181 92.621 23.6179C100.594 16.9522 108.091 9.87732 115.799 2.95532C116.671 2.10472 113.621 0.801318 112.694 1.54842Z" fill="#79C800"/>
<path d="M98.548 7.48793C98.652 7.43383 98.598 7.33043 98.701 7.27643C99.155 6.38093 95.952 5.28903 95.498 6.18443C91.389 12.9386 86.276 19.0318 83.008 26.1365C82.707 26.8204 84.178 27.3687 84.493 27.4675C87.584 28.0916 91.124 27.5594 94.143 27.0364C96.487 26.734 98.83 26.4317 101.12 26.0259C102.371 25.8994 103.972 24.9316 105.119 24.8592C107.413 24.7143 105.136 22.8752 103.831 22.8982C101.173 23.1017 98.37 24.0386 95.716 24.503C92.541 24.9766 88.285 26.4089 84.983 25.6319C85.46 26.0411 85.937 26.4503 86.468 26.9629C89.583 20.0697 94.592 14.0305 98.548 7.48793C97.446 7.14193 96.344 6.79593 95.241 6.45003C95.138 6.50403 95.192 6.60743 95.089 6.66153C94.738 7.50293 97.941 8.59483 98.548 7.48793Z" fill="#79C800"/>
<path d="M80.158 9.58694C77.421 17.2042 74.532 25.0331 71.165 32.4527C70.158 34.5585 67.2492 38.3161 69.324 40.5241C69.855 41.0367 71.272 41.4815 71.996 41.1034C77.884 37.5021 85.392 37.0043 92.023 37.0961C96.094 37.0765 99.783 36.0719 103.741 35.5845C105.617 35.3948 102.976 33.6143 102.09 33.6822C101.986 33.7362 101.829 33.6868 101.725 33.7408C99.431 33.8857 101.708 35.7247 103.013 35.7017C103.116 35.6477 103.274 35.6971 103.377 35.6431C102.792 35.027 102.207 34.4109 101.725 33.7408C98.86 34.0523 95.797 34.9938 92.877 35.2018C89.957 35.4099 87.024 34.8353 84.055 35.2008C79.156 35.6526 73.488 36.901 69.306 39.4804C70.196 39.6735 71.087 39.8666 71.978 40.0597C71.073 39.0838 75.722 30.3366 76.068 29.2342C78.305 22.9307 81.227 16.9283 83.465 10.6248C83.964 9.31104 80.553 8.32714 80.158 9.58694Z" fill="#79C800"/>
<path d="M67.3582 14.824C65.3203 14.7033 65.0329 16.17 64.3858 17.9563C62.6468 22.946 61.3308 28.2414 60.1182 33.4829C58.9056 38.7243 57.5896 44.0198 56.638 49.2566C56.2564 51.2992 55.8702 53.0808 57.6702 54.5107C59.1507 55.5808 60.3967 55.1934 61.9576 54.9049C67.1622 54.0301 72.214 53.3668 77.581 52.8023C85.97 51.9757 94.464 51.0952 102.628 49.333C101.939 48.7709 101.197 48.1054 100.612 47.4893C100.405 47.5973 100.144 47.6019 99.937 47.71C98.066 48.1606 100.914 49.833 101.953 49.5536C102.16 49.4456 102.421 49.441 102.628 49.333C104.603 48.8283 101.547 47.264 100.612 47.4893C88.183 50.1619 75.492 49.8115 63.1128 52.3267C61.6553 52.5612 60.576 53.5198 59.9817 52.3819C59.5001 51.7118 60.1966 49.7681 60.2863 48.9313C61.1529 44.7921 62.3344 40.7519 63.201 36.6127C63.5872 34.8311 67.2376 16.8619 68.6996 16.8884C70.89 16.7975 68.5594 14.855 67.3582 14.824Z" fill="#79C800"/>
<path d="M49.474 24.953C48.0247 34.5313 46.6835 44.3165 45.1308 53.9487C44.471 57.9798 43.9688 62.0603 44.1459 66.181C44.1195 67.6431 43.6218 71.9845 44.5356 73.4822C45.0713 74.2558 46.646 74.75 47.4196 74.2144C50.5725 72.4362 55.3231 72.4568 58.8047 71.5602C63.7932 70.2716 69.056 69.7612 74.099 68.576C78.57 67.5575 82.642 67.5379 86.892 65.8448C90.936 64.2596 94.709 62.1573 98.699 60.4687C97.75 59.9112 96.958 59.4032 96.008 58.8457C95.698 59.0078 95.388 59.1699 95.181 59.2779C93.836 59.9803 96.837 61.4411 97.872 60.9009C98.182 60.7388 98.492 60.5767 98.699 60.4687C100.147 59.7123 96.993 58.463 96.008 58.8457C92.329 60.3722 88.762 62.3666 85.083 63.8931C79.901 66.0725 73.855 66.5967 68.3944 67.737C63.6081 68.6566 58.8713 69.4188 54.1391 70.4418C51.0713 71.1224 47.5713 70.9753 44.8322 72.5374C45.777 72.8339 46.8253 73.0765 47.7161 73.2695C47.0184 72.1856 47.6677 64.6051 47.6493 63.5614C47.6837 59.5936 48.5055 55.8728 48.9583 51.9498C50.0571 43.213 51.5742 34.5209 52.8304 25.8335C53.1223 24.6277 49.6625 23.8013 49.474 24.953Z" fill="#79C800"/>
<path d="M31.3546 39.4189C27.7283 49.8708 29.7698 59.0743 30.4263 69.6594C30.7252 74.7698 31.5908 79.4526 32.3576 84.4503C32.9392 87.8331 31.9738 92.287 33.5945 95.391C33.9727 96.115 35.8084 96.604 36.4785 96.123C41.2773 92.958 47.3682 92.016 52.7705 90.511C58.3303 89.0557 63.0843 86.3096 68.482 84.544C74.087 82.6704 79.696 81.0576 85.251 79.3414C89.196 78.0712 93.698 75.8516 96.144 72.4676C96.908 71.4102 93.651 70.2148 92.99 71.2183C89.371 76.1367 83.181 77.3943 77.729 79.0565C72.588 80.5566 67.3429 82.1107 62.4222 84.2855C57.398 86.5143 52.5222 88.2707 47.2233 89.7214C42.4957 91.005 37.7095 91.925 33.5807 94.608C34.5256 94.904 35.5739 95.147 36.4647 95.34C35.0014 92.286 35.9484 86.7882 35.1599 83.5135C34.1414 79.0422 33.7528 74.7686 33.4631 70.1801C32.8112 59.8558 30.8191 50.4949 34.3466 40.358C35.111 39.3005 31.804 38.2626 31.3546 39.4189Z" fill="#79C800"/>
<path d="M16.3934 55.3952C16.8314 59.5113 16.2303 63.9068 16.5109 67.9735C16.9224 73.5517 18.4271 78.954 19.41 84.3655C20.3342 89.4126 21.4653 94.352 22.8574 99.286C23.754 102.768 22.8287 106.543 25.0748 109.583C25.6104 110.356 27.1852 110.851 27.9587 110.315C30.5403 108.703 34.4047 108.792 37.3151 108.062C40.3289 107.278 43.176 105.923 46.0231 104.568C51.4611 102.123 56.8002 99.993 62.3508 98.016C68.3151 95.822 74.5 94.304 80.082 91.126C85.457 88.0553 90.124 83.3794 94.752 79.3827C93.753 78.9827 92.7 78.4793 91.598 78.1333C91.548 78.2908 91.396 78.5023 91.292 78.5563C90.582 79.7173 93.785 80.8092 94.446 79.8057C94.496 79.6482 94.648 79.4367 94.752 79.3827C95.512 78.0643 92.421 77.4402 91.598 78.1333C86.453 82.4001 81.479 87.4991 75.529 90.475C69.785 93.343 63.0335 95.289 56.961 97.275C52.0311 98.928 47.061 101.261 42.4013 103.431C38.6231 105.272 35.092 106.326 30.9805 107.025C29.1587 107.318 26.9725 107.67 25.2679 108.692C26.2127 108.989 27.261 109.231 28.1518 109.424C26.3334 106.951 27.6012 104.84 27.0827 102.083C26.7356 100.157 25.7137 98.453 25.2091 96.478C23.8757 91.908 23.271 87.2206 22.4594 82.6413C21.5398 77.8551 20.2558 73.1275 19.9074 68.1746C19.6764 63.9504 20.228 59.7124 19.79 55.5963C19.6682 54.6066 16.213 54.0412 16.3934 55.3952Z" fill="#79C800"/>
<path d="M4.47249 74.9196C5.19789 77.5691 5.2979 80.2817 6.0232 82.9312C6.8612 86.0484 8.63489 88.9404 9.36939 92.112C10.6626 97.361 11.8523 102.665 13.4064 107.909C15.5732 115.336 20.3274 124.439 28.9504 122.043C40.2229 118.921 51.108 114.553 61.9931 110.185C72.514 105.875 84.858 104.3 90.985 93.596C91.439 92.7 89.082 92.22 88.663 92.175C88.56 92.229 88.402 92.179 88.299 92.233C86.054 92.221 88.385 94.163 89.586 94.194C89.69 94.14 89.847 94.19 89.951 94.136C89.159 93.628 88.421 93.223 87.629 92.715C82.162 102.416 70.867 104.234 61.3264 107.9C51.6286 111.516 42.147 115.546 32.2826 118.591C30.6723 119.037 26.7412 121.09 25.2745 120.802C23.0745 120.371 20.8147 116.548 19.7388 114.74C17.1594 110.558 16.7708 106.284 15.3339 101.768C14.0051 97.459 13.1982 93.14 11.559 88.9932C9.86119 84.4817 9.2612 80.0552 8.0312 75.4311C7.4863 74.1357 4.18859 73.6196 4.47249 74.9196Z" fill="#79C800"/>
<path d="M0.342891 98.274C-0.365109 105.49 3.03049 114.513 7.46389 120.229C10.133 123.575 13.0181 127.335 16.0469 130.361C17.7975 131.949 18.9539 132.398 21.1987 132.411C30.6999 132.452 40.5966 131.233 49.9081 129.399C59.6875 127.451 68.6933 126.04 76.406 119.379C76.869 119.005 76.181 118.443 75.915 118.187C75.758 118.137 75.65 117.93 75.492 117.881C74.435 117.117 71.52 117.586 73.369 118.858C73.527 118.907 73.635 119.114 73.792 119.164C73.576 118.75 73.414 118.44 73.301 117.972C66.1553 124.205 57.8288 125.657 48.8276 127.33C41.023 128.772 33.2137 129.954 25.3366 130.25C21.8412 130.364 20.4516 131.484 18.1113 129.02C15.5595 126.403 12.8951 123.318 10.5996 120.435C6.43169 114.975 3.04529 106.474 3.75789 99.519C3.83369 97.899 0.427891 97.176 0.342891 98.274Z" fill="#79C800"/>
</g>
</g>
<defs>
<clipPath id="clip0_3_2">
<rect width="120" height="212" fill="white"/>
</clipPath>
</defs>
</svg>
