<svg width="69" height="117" viewBox="0 0 69 117" fill="none" xmlns="http://www.w3.org/2000/svg">
<g clip-path="url(#clip0_2_1887)">
<path d="M67.6143 54.5629C68.8143 55.2629 68.9143 56.5628 68.9143 57.8628C68.9143 58.7628 68.8143 59.6628 68.7143 60.6628C68.5143 62.9628 68.2143 65.1628 67.2143 67.2628C66.6143 68.5628 66.3143 68.6628 65.2143 68.3628C63.9143 67.8628 63.6143 67.4628 63.9143 66.1628C64.4143 63.9628 64.3143 61.7628 64.2143 59.6628C64.1143 57.3628 65.3143 55.9629 67.1143 54.8629C67.2143 54.8629 67.3143 54.7628 67.3143 54.7628C67.5143 54.5628 67.5143 54.5629 67.6143 54.5629Z" fill="#512A00"/>
<path d="M35.4131 39.8636C36.3131 41.3636 36.3131 42.9636 35.8131 44.4636C35.4131 46.0636 34.9131 47.5636 34.3131 49.1636C33.8131 50.4636 33.2131 50.7636 32.4131 50.6636C31.4131 50.4636 30.6131 49.5636 30.5131 48.3636C30.5131 48.0636 30.5131 47.8636 30.5131 47.5636C30.6131 46.2636 30.6131 44.8636 30.7131 43.5636C30.8131 42.2636 31.6131 41.4636 32.6131 40.6636C32.9131 40.3636 33.4131 40.1636 33.8131 39.9636C34.5131 39.4636 34.5131 39.4636 35.4131 39.8636Z" fill="#512A00"/>
<path d="M61.8139 43.3631C62.6138 43.3631 63.0139 43.7631 63.2139 44.3631C63.6139 45.4631 63.8139 46.6631 63.7139 47.8631C63.6139 48.8631 63.6139 49.7631 63.5139 50.7631C63.3139 52.6631 63.0139 54.4631 62.7139 56.3631C62.7139 56.5631 62.5139 56.7631 62.2139 57.1631C61.7139 56.9631 61.1139 56.7631 60.5139 56.4631C60.4139 54.9631 60.4139 53.5631 60.2139 52.1631C60.0139 50.6631 59.7139 49.1631 59.4139 47.7631C59.1139 46.3631 59.7139 44.7631 60.9139 43.9631C61.2139 43.6631 61.5139 43.5631 61.8139 43.3631Z" fill="#512A00"/>
<path d="M44.0135 31.5634C43.7135 31.4634 43.4135 31.2634 43.1135 31.0634C43.0135 30.3634 42.8135 29.7634 42.7135 29.0634C42.6135 27.2634 42.5135 25.5634 42.4135 23.7634C42.4135 22.9634 42.3135 22.1634 42.1135 21.3634C41.7135 19.8634 42.6135 18.9634 43.4135 18.0634C43.9135 17.4634 44.7135 17.1634 45.4135 16.6634C46.8135 21.0634 45.6135 25.2634 45.0135 29.4634C44.9135 30.7634 44.7135 30.8634 44.0135 31.5634Z" fill="#512A00"/>
<path d="M56.013 11.3637C55.013 11.5637 54.413 11.1637 54.113 10.4637C53.213 8.36368 52.213 6.16368 51.313 4.06368C51.213 3.86368 51.213 3.66368 51.213 3.46368C51.513 2.46368 51.813 1.56368 52.613 0.863678C53.513 0.0636777 54.913 0.263678 55.313 1.36368C55.713 2.26368 56.013 3.26368 56.113 4.26368C56.313 6.16368 56.413 8.06368 56.413 9.96368C56.413 10.3637 56.113 10.8637 56.013 11.3637Z" fill="#512A00"/>
<path d="M39.8137 78.8632C39.3137 78.6632 38.9137 78.5632 38.6137 78.3632C38.3137 78.1632 38.0137 77.7632 38.0137 77.3632C38.1137 75.3632 38.2137 73.3632 38.6137 71.3632C38.9137 70.0632 39.9137 68.9632 41.1137 68.1632C41.3137 67.9632 41.7137 67.9632 42.0137 67.8632C43.1137 69.2632 42.9137 70.8632 42.6137 72.2632C42.2137 74.0632 41.5137 75.7632 40.8137 77.4632C40.6137 77.9632 40.1137 78.3632 39.8137 78.8632Z" fill="#512A00"/>
<path d="M53.7129 67.5637C52.0129 67.1637 51.7129 66.7637 51.7129 65.1637C51.7129 64.4637 51.8129 63.7637 51.7129 63.1637C51.6129 62.4637 51.4129 61.8637 51.2129 61.0637C51.8129 59.4637 53.0129 58.2637 54.8129 57.7637C55.7129 58.3637 55.8129 59.0637 55.9129 59.9637C56.0129 61.4637 55.7129 62.9637 55.2129 64.3637C54.9129 65.1637 54.6129 65.9637 54.2129 66.7637C54.1129 67.0637 53.9129 67.2637 53.7129 67.5637Z" fill="#512A00"/>
<path d="M0.612939 94.7637C0.412939 94.5637 0.212939 94.2637 0.0129395 93.9637C0.712939 92.7637 1.41294 91.6637 2.01294 90.4637C2.21294 90.1637 2.41294 89.9637 2.51294 89.5637C3.11294 87.9637 4.51294 87.0637 5.91294 86.1637C6.21294 85.9637 6.71294 85.9637 7.01294 85.8637C7.81294 87.3637 7.41294 89.8637 6.31294 90.9637C5.21294 92.0637 3.91294 93.0637 2.71294 94.0637C2.21294 94.7637 1.51294 94.8637 0.612939 94.7637Z" fill="#512A00"/>
<path d="M31.0138 62.6631C32.1138 65.7631 30.6138 70.9631 28.1138 72.6631C27.7138 72.4631 27.2138 72.2631 26.6138 72.0631C26.7138 71.1631 26.9138 70.3631 27.0138 69.5631C27.1138 68.5631 27.2138 67.6631 27.2138 66.6631C27.3138 65.0631 28.6138 63.1631 30.1138 62.7631C30.4138 62.6631 30.7138 62.6631 31.0138 62.6631Z" fill="#512A00"/>
<path d="M7.21307 99.4636C8.01307 100.964 7.41307 102.364 7.01307 103.764C7.01307 103.864 6.91307 104.064 6.81307 104.064C5.41307 104.964 4.01307 105.964 2.61307 106.764C2.11307 107.064 1.41307 106.764 0.613068 106.764C0.713068 106.164 0.613068 105.864 0.813068 105.564C1.61307 104.164 2.31307 102.664 3.31307 101.364C3.91307 100.564 4.91307 99.9636 5.71307 99.3636C6.11307 99.0636 6.61307 98.9636 7.21307 99.4636Z" fill="#512A00"/>
<path d="M18.9139 78.9631C19.7139 79.2631 19.8139 79.8631 19.8139 80.5631C19.9139 82.1631 19.6139 83.6631 18.6139 84.8631C17.7139 85.9631 16.8139 87.0631 16.0139 88.1631C14.5139 88.3631 14.5139 88.3631 13.9139 87.2631C14.5139 85.5631 15.1139 83.7631 15.8139 82.1631C16.3139 80.5631 17.4139 79.5631 18.9139 78.9631Z" fill="#512A00"/>
<path d="M33.2124 87.9641C33.5124 88.4641 33.9124 88.9641 34.0124 89.3641C34.3124 91.4641 34.1124 93.5641 32.3124 95.1641C31.5124 95.8641 30.9124 96.6641 30.1124 97.4641C29.5124 97.0641 29.2124 96.7641 28.7124 96.4641C29.0124 95.1641 29.4124 94.0641 29.5124 92.7641C29.6124 91.6641 30.1124 90.8641 30.7124 89.9641C31.3124 89.0641 32.2124 88.6641 33.2124 87.9641Z" fill="#512A00"/>
<path d="M49.4143 79.0628C50.4143 79.3628 50.4143 80.1628 50.5143 80.8628C50.6143 83.2628 50.1143 84.7628 48.4143 86.8628C46.5143 87.0628 46.0143 86.5628 46.0143 84.7628C46.0143 82.5628 46.8143 80.6628 48.7143 79.3628C49.0143 79.2628 49.2143 79.1628 49.4143 79.0628Z" fill="#512A00"/>
<path d="M7.11334 109.763C7.31334 111.863 6.71334 113.563 4.91334 114.663C4.11334 115.163 3.41334 115.763 2.61334 116.263C1.41334 116.963 1.11334 116.863 0.113342 115.863C1.41334 112.463 5.01334 109.263 7.11334 109.763Z" fill="#512A00"/>
<path d="M40.3143 91.3628C41.6143 93.4628 40.4143 97.4628 37.8143 99.6628C37.4143 99.4628 36.9143 99.2628 36.5143 99.0628C36.1143 96.1628 38.2143 92.0628 40.3143 91.3628Z" fill="#512A00"/>
</g>
<defs>
<clipPath id="clip0_2_1887">
<rect width="117" height="69" fill="white" transform="matrix(0 -1 1 0 0 117)"/>
</clipPath>
</defs>
</svg>
