<svg width="248" height="138" viewBox="0 0 248 138" fill="none" xmlns="http://www.w3.org/2000/svg">
<path d="M185.012 61.0044C185.582 60.9496 186.05 61.418 185.996 61.9879C185.643 65.6627 183.916 77.9903 176.229 85.6778C171.194 90.7124 163.776 91.4569 159.659 87.3405C155.543 83.2243 156.288 75.8059 161.322 70.7712C169.01 63.0838 181.337 61.3566 185.012 61.0044Z" fill="#91CF96"/>
<path d="M98.0044 69.9878C97.9496 69.4182 98.418 68.9498 98.9879 69.0043C102.663 69.357 114.99 71.084 122.678 78.7713C127.712 83.806 128.457 91.2244 124.34 95.3406C120.224 99.4569 112.806 98.7124 107.771 93.6779C100.084 85.9902 98.3566 73.6627 98.0044 69.9878Z" fill="#91CF96"/>
<path d="M100.004 36.0218C99.9496 35.4325 100.418 34.9479 100.988 35.0045C104.663 35.3691 116.99 37.1557 124.678 45.1083C129.712 50.3165 130.457 57.9906 126.341 62.2489C122.224 66.5072 114.806 65.7369 109.771 60.5288C102.084 52.5764 100.357 39.8237 100.004 36.0218Z" fill="#91CF96"/>
<path d="M175.621 26.6789C176.208 26.6085 176.704 27.0814 176.662 27.672C176.387 31.4812 174.902 44.2725 167.139 52.4105C162.055 57.7401 154.401 58.6912 150.044 54.5346C145.686 50.378 146.275 42.688 151.359 37.3582C159.121 29.2199 171.828 27.1329 175.621 26.6789Z" fill="#91CF96"/>
<path d="M174.5 73.9999C173.816 73.3228 172.709 73.3228 172.025 73.9999L143.75 100.016V70.3743C143.75 68.0585 144.661 65.8819 146.314 64.2459L161.475 44.4511C162.158 43.7741 162.158 42.677 161.475 42C160.791 41.323 159.684 41.323 159 42L143.839 61.7942C141.525 64.0851 140.25 67.1321 140.25 70.3745V72.2921C140.219 72.2607 140.193 72.2263 140.161 72.1951L118.975 51.5487C118.291 50.8716 117.183 50.8716 116.5 51.5487C115.816 52.2257 115.816 53.3227 116.5 53.9998L137.687 74.647C139.339 76.2823 140.25 78.459 140.25 80.7747V108.683L114.975 84.0488C114.291 83.3717 113.183 83.3717 112.5 84.0488C111.816 84.7258 111.816 85.8228 112.5 86.4999L140.25 113.584V125H143.75V104.918L174.5 76.451C175.184 75.7737 175.184 74.6771 174.5 73.9999Z" fill="#5ABA63"/>
<path d="M174.937 136.448C168.692 129.067 156.289 124.034 142 124.034C127.71 124.034 115.307 129.067 109.062 136.448" fill="#9A7863"/>
<path d="M151.135 124.754C148.21 124.293 145.155 124.034 142 124.034C127.711 124.034 115.307 129.067 109.062 136.448H127.332C132.198 130.697 140.812 126.384 151.135 124.754Z" fill="#8C695C"/>
<path d="M180.793 138H103.207C102.349 138 101.655 137.305 101.655 136.448C101.655 135.591 102.349 134.896 103.207 134.896H180.793C181.651 134.896 182.345 135.591 182.345 136.448C182.345 137.305 181.651 138 180.793 138Z" fill="#785353"/>
</svg>
